<svg xmlns="http://www.w3.org/2000/svg" width="24" height="25" viewBox="0 0 24 25" fill="none">
  <path d="M18.6129 13.2097L18.7071 13.2929L22.2071 16.7929C22.5676 17.1534 22.5953 17.7206 22.2903 18.1129L22.2071 18.2071L18.7071 21.7071C18.3166 22.0976 17.6834 22.0976 17.2929 21.7071C16.9324 21.3466 16.9047 20.7794 17.2097 20.3871L17.2929 20.2929L19.085 18.5H14C13.4477 18.5 13 18.0523 13 17.5C13 16.9872 13.386 16.5645 13.8834 16.5067L14 16.5H19.085L17.2929 14.7071C16.9324 14.3466 16.9047 13.7794 17.2097 13.3871L17.2929 13.2929C17.6534 12.9324 18.2206 12.9047 18.6129 13.2097ZM9 13.5C10.1046 13.5 11 14.3954 11 15.5V18.5C11 19.6046 10.1046 20.5 9 20.5H6C4.89543 20.5 4 19.6046 4 18.5V15.5C4 14.3954 4.89543 13.5 6 13.5H9ZM9 15.5H6V18.5H9V15.5ZM9 4.5C10.1046 4.5 11 5.39543 11 6.5V9.5C11 10.6046 10.1046 11.5 9 11.5H6C4.89543 11.5 4 10.6046 4 9.5V6.5C4 5.39543 4.89543 4.5 6 4.5H9ZM18 4.5C19.1046 4.5 20 5.39543 20 6.5V9.5C20 10.6046 19.1046 11.5 18 11.5H15C13.8954 11.5 13 10.6046 13 9.5V6.5C13 5.39543 13.8954 4.5 15 4.5H18ZM9 6.5H6V9.5H9V6.5ZM18 6.5H15V9.5H18V6.5Z" fill="#4A5768"/>
</svg>